{
  "accessors": [
    {
      "bufferView": 2,
      "componentType": 5126,
      "count": 361,
      "max": [
        2.974128246307373,
        2.9576773643493652,
        2.6421186923980713
      ],
      "min": [
        -3.680159568786621,
        -4.506030082702637,
        -4.882956504821777
      ],
      "type": "VEC3"
    },
    {
      "bufferView": 2,
      "byteOffset": 4332,
      "componentType": 5126,
      "count": 361,
      "max": [
        0.9982656240463257,
        0.9979437589645386,
        0.9981894493103027
      ],
      "min": [
        -0.9937695860862732,
        -0.9999814033508301,
        -0.9972396492958069
      ],
      "type": "VEC3"
    },
    {
      "bufferView": 1,
      "componentType": 5126,
      "count": 361,
      "max": [
        0.9766684174537659,
        1.0000249147415161
      ],
      "min": [
        0.027194533497095108,
        0.025509987026453018
      ],
      "type": "VEC2"
    },
    {
      "bufferView": 0,
      "componentType": 5125,
      "count": 714,
      "type": "SCALAR"
    },
    {
      "bufferView": 2,
      "byteOffset": 8664,
      "componentType": 5126,
      "count": 158,
      "max": [
        3.238358974456787,
        3.383978843688965,
        14.574501037597656
      ],
      "min": [
        -3.0255510807037354,
        -2.8909406661987305,
        1.3318040370941162
      ],
      "type": "VEC3"
    },
    {
      "bufferView": 2,
      "byteOffset": 10560,
      "componentType": 5126,
      "count": 158,
      "max": [
        0.9967747926712036,
        0.9836459159851074,
        0.9355292916297913
      ],
      "min": [
        -0.9810063242912292,
        -0.9808989763259888,
        -0.9912505745887756
      ],
      "type": "VEC3"
    },
    {
      "bufferView": 1,
      "byteOffset": 2888,
      "componentType": 5126,
      "count": 158,
      "max": [
        0.8750002384185791,
        1.000000238418579
      ],
      "min": [
        0.1250000298023224,
        0.0
      ],
      "type": "VEC2"
    },
    {
      "bufferView": 0,
      "byteOffset": 2856,
      "componentType": 5125,
      "count": 510,
      "type": "SCALAR"
    },
    {
      "bufferView": 2,
      "byteOffset": 12456,
      "componentType": 5126,
      "count": 144,
      "max": [
        0.9690269231796265,
        0.942932665348053,
        0.9939327239990234
      ],
      "min": [
        -0.993932843208313,
        -0.8597878217697144,
        -0.9693416953086853
      ],
      "type": "VEC3"
    },
    {
      "bufferView": 2,
      "byteOffset": 14184,
      "componentType": 5126,
      "count": 144,
      "max": [
        0.9851680397987366,
        0.99952232837677,
        0.9805219173431396
      ],
      "min": [
        -0.984063446521759,
        -0.9980231523513794,
        -0.962314248085022
      ],
      "type": "VEC3"
    },
    {
      "bufferView": 1,
      "byteOffset": 4152,
      "componentType": 5126,
      "count": 144,
      "max": [
        0.6250001192092896,
        1.0000001192092896
      ],
      "min": [
        0.13161873817443848,
        0.0
      ],
      "type": "VEC2"
    },
    {
      "bufferView": 0,
      "byteOffset": 4896,
      "componentType": 5125,
      "count": 492,
      "type": "SCALAR"
    },
    {
      "bufferView": 2,
      "byteOffset": 15912,
      "componentType": 5126,
      "count": 210,
      "max": [
        1.0697052478790283,
        1.2215248346328735,
        0.9708393812179565
      ],
      "min": [
        -1.0921014547348022,
        0.6489059329032898,
        -1.1514571905136108
      ],
      "type": "VEC3"
    },
    {
      "bufferView": 2,
      "byteOffset": 18432,
      "componentType": 5126,
      "count": 210,
      "max": [
        0.9265617728233337,
        0.9950152039527893,
        0.9908920526504517
      ],
      "min": [
        -0.9989688396453857,
        -0.988701343536377,
        -0.9589642882347107
      ],
      "type": "VEC3"
    },
    {
      "bufferView": 1,
      "byteOffset": 5304,
      "componentType": 5126,
      "count": 210,
      "max": [
        0.0,
        1.0000001192092896
      ],
      "min": [
        0.0,
        0.0
      ],
      "type": "VEC2"
    },
    {
      "bufferView": 0,
      "byteOffset": 6864,
      "componentType": 5125,
      "count": 1080,
      "type": "SCALAR"
    },
    {
      "bufferView": 2,
      "byteOffset": 20952,
      "componentType": 5126,
      "count": 112,
      "max": [
        0.9894212484359741,
        0.44100457429885864,
        0.26638349890708923
      ],
      "min": [
        -0.9898963570594788,
        -3.374998092651367,
        -3.0833871364593506
      ],
      "type": "VEC3"
    },
    {
      "bufferView": 2,
      "byteOffset": 22296,
      "componentType": 5126,
      "count": 112,
      "max": [
        0.9920292496681213,
        0.7416123151779175,
        0.9343803524971008
      ],
      "min": [
        -0.9885570406913757,
        -0.9959371089935303,
        -0.9906970858573914
      ],
      "type": "VEC3"
    },
    {
      "bufferView": 1,
      "byteOffset": 6984,
      "componentType": 5126,
      "count": 112,
      "max": [
        0.624476969242096,
        0.9938658475875854
      ],
      "min": [
        0.1250000298023224,
        0.0
      ],
      "type": "VEC2"
    },
    {
      "bufferView": 0,
      "byteOffset": 11184,
      "componentType": 5125,
      "count": 477,
      "type": "SCALAR"
    },
    {
      "bufferView": 2,
      "byteOffset": 23640,
      "componentType": 5126,
      "count": 126,
      "max": [
        0.7633340358734131,
        1.3872257471084595,
        0.46222564578056335
      ],
      "min": [
        -0.7577651143074036,
        -0.06788361072540283,
        -0.9494290351867676
      ],
      "type": "VEC3"
    },
    {
      "bufferView": 2,
      "byteOffset": 25152,
      "componentType": 5126,
      "count": 126,
      "max": [
        0.9196515679359436,
        0.9878372550010681,
        0.990083634853363
      ],
      "min": [
        -0.9905605316162109,
        -0.9972530603408813,
        -0.9777325391769409
      ],
      "type": "VEC3"
    },
    {
      "bufferView": 1,
      "byteOffset": 7880,
      "componentType": 5126,
      "count": 126,
      "max": [
        0.8750001192092896,
        0.9992455244064331
      ],
      "min": [
        0.5973755121231079,
        0.0
      ],
      "type": "VEC2"
    },
    {
      "bufferView": 0,
      "byteOffset": 13092,
      "componentType": 5125,
      "count": 441,
      "type": "SCALAR"
    },
    {
      "bufferView": 2,
      "byteOffset": 26664,
      "componentType": 5126,
      "count": 412,
      "max": [
        2.7996301651000977,
        2.052523374557495,
        0.6912096738815308
      ],
      "min": [
        -1.9438886642456055,
        -2.084623098373413,
        -4.201511383056641
      ],
      "type": "VEC3"
    },
    {
      "bufferView": 2,
      "byteOffset": 31608,
      "componentType": 5126,
      "count": 412,
      "max": [
        0.9974796772003174,
        0.9999973773956299,
        0.9988076090812683
      ],
      "min": [
        -0.9990543127059937,
        -0.9999959468841553,
        -0.9996863007545471
      ],
      "type": "VEC3"
    },
    {
      "bufferView": 1,
      "byteOffset": 8888,
      "componentType": 5126,
      "count": 412,
      "max": [
        0.8750002384185791,
        1.000000238418579
      ],
      "min": [
        0.1250000298023224,
        0.0
      ],
      "type": "VEC2"
    },
    {
      "bufferView": 0,
      "byteOffset": 14856,
      "componentType": 5125,
      "count": 1380,
      "type": "SCALAR"
    },
    {
      "bufferView": 2,
      "byteOffset": 36552,
      "componentType": 5126,
      "count": 206,
      "max": [
        2.228203773498535,
        3.6988325119018555,
        -0.14988282322883606
      ],
      "min": [
        -0.8341472148895264,
        1.8149851560592651,
        -3.353543758392334
      ],
      "type": "VEC3"
    },
    {
      "bufferView": 2,
      "byteOffset": 39024,
      "componentType": 5126,
      "count": 206,
      "max": [
        0.9994255900382996,
        0.9999480247497559,
        0.9569264650344849
      ],
      "min": [
        -0.9856150150299072,
        -0.9999794960021973,
        -0.9608232975006104
      ],
      "type": "VEC3"
    },
    {
      "bufferView": 1,
      "byteOffset": 12184,
      "componentType": 5126,
      "count": 206,
      "max": [
        0.7500002384185791,
        0.7146230936050415
      ],
      "min": [
        0.7499998211860657,
        0.6079981327056885
      ],
      "type": "VEC2"
    },
    {
      "bufferView": 0,
      "byteOffset": 20376,
      "componentType": 5125,
      "count": 414,
      "type": "SCALAR"
    },
    {
      "bufferView": 2,
      "byteOffset": 41496,
      "componentType": 5126,
      "count": 103,
      "max": [
        1.1775071620941162,
        1.4459255933761597,
        0.8759558796882629
      ],
      "min": [
        -1.16604745388031,
        -0.8165532946586609,
        -3.505701780319214
      ],
      "type": "VEC3"
    },
    {
      "bufferView": 2,
      "byteOffset": 42732,
      "componentType": 5126,
      "count": 103,
      "max": [
        0.9994670748710632,
        0.9999221563339233,
        0.9984355568885803
      ],
      "min": [
        -0.9994529485702515,
        -0.9963693022727966,
        -0.9751104116439819
      ],
      "type": "VEC3"
    },
    {
      "bufferView": 1,
      "byteOffset": 13832,
      "componentType": 5126,
      "count": 103,
      "max": [
        0.8750001192092896,
        1.0000001192092896
      ],
      "min": [
        0.125,
        0.0
      ],
      "type": "VEC2"
    },
    {
      "bufferView": 0,
      "byteOffset": 22032,
      "componentType": 5125,
      "count": 480,
      "type": "SCALAR"
    },
    {
      "bufferView": 2,
      "byteOffset": 43968,
      "componentType": 5126,
      "count": 994,
      "max": [
        0.8249387145042419,
        0.8421575427055359,
        1.4693907499313354
      ],
      "min": [
        -0.8068585395812988,
        -0.004882737062871456,
        -1.2928508520126343
      ],
      "type": "VEC3"
    },
    {
      "bufferView": 2,
      "byteOffset": 55896,
      "componentType": 5126,
      "count": 994,
      "max": [
        0.9995379447937012,
        0.994627058506012,
        0.9707091450691223
      ],
      "min": [
        -0.9998416900634766,
        -0.9990816712379456,
        -0.9772835373878479
      ],
      "type": "VEC3"
    },
    {
      "bufferView": 1,
      "byteOffset": 14656,
      "componentType": 5126,
      "count": 994,
      "max": [
        0.0,
        0.0
      ],
      "min": [
        0.0,
        0.0
      ],
      "type": "VEC2"
    },
    {
      "bufferView": 0,
      "byteOffset": 23952,
      "componentType": 5125,
      "count": 1146,
      "type": "SCALAR"
    },
    {
      "bufferView": 2,
      "byteOffset": 67824,
      "componentType": 5126,
      "count": 171,
      "max": [
        0.7956217527389526,
        0.10061977803707123,
        0.9471752643585205
      ],
      "min": [
        -0.7921558618545532,
        -1.4981874227523804,
        -0.6568452715873718
      ],
      "type": "VEC3"
    },
    {
      "bufferView": 2,
      "byteOffset": 69876,
      "componentType": 5126,
      "count": 171,
      "max": [
        0.9658655524253845,
        0.9996726512908936,
        0.9862703084945679
      ],
      "min": [
        -0.9675174355506897,
        -0.9770069718360901,
        -0.9881356358528137
      ],
      "type": "VEC3"
    },
    {
      "bufferView": 1,
      "byteOffset": 22608,
      "componentType": 5126,
      "count": 171,
      "max": [
        0.8686930537223816,
        1.000000238418579
      ],
      "min": [
        0.1250000298023224,
        0.0
      ],
      "type": "VEC2"
    },
    {
      "bufferView": 0,
      "byteOffset": 28536,
      "componentType": 5125,
      "count": 780,
      "type": "SCALAR"
    },
    {
      "bufferView": 2,
      "byteOffset": 71928,
      "componentType": 5126,
      "count": 337,
      "max": [
        0.9982852935791016,
        2.0233960151672363,
        0.9857912063598633
      ],
      "min": [
        -2.80409574508667,
        -2.3814218044281006,
        -2.804075002670288
      ],
      "type": "VEC3"
    },
    {
      "bufferView": 2,
      "byteOffset": 75972,
      "componentType": 5126,
      "count": 337,
      "max": [
        0.9840167760848999,
        0.9963545203208923,
        0.9942647814750671
      ],
      "min": [
        -0.9933347702026367,
        -0.9954063296318054,
        -0.9961816072463989
      ],
      "type": "VEC3"
    },
    {
      "bufferView": 1,
      "byteOffset": 23976,
      "componentType": 5126,
      "count": 337,
      "max": [
        0.8750001192092896,
        1.0000001192092896
      ],
      "min": [
        0.1250000149011612,
        0.0
      ],
      "type": "VEC2"
    },
    {
      "bufferView": 0,
      "byteOffset": 31656,
      "componentType": 5125,
      "count": 1188,
      "type": "SCALAR"
    },
    {
      "bufferView": 2,
      "byteOffset": 80016,
      "componentType": 5126,
      "count": 856,
      "max": [
        0.23900669813156128,
        -0.12287501245737076,
        0.48010966181755066
      ],
      "min": [
        -2.3477132320404053,
        -4.429976463317871,
        -2.350095748901367
      ],
      "type": "VEC3"
    },
    {
      "bufferView": 2,
      "byteOffset": 90288,
      "componentType": 5126,
      "count": 856,
      "max": [
        0.9993690252304077,
        0.9956101179122925,
        0.9987790584564209
      ],
      "min": [
        -0.9943447113037109,
        -0.9918109774589539,
        -0.9801909923553467
      ],
      "type": "VEC3"
    },
    {
      "bufferView": 1,
      "byteOffset": 26672,
      "componentType": 5126,
      "count": 856,
      "max": [
        0.0,
        0.0
      ],
      "min": [
        0.0,
        0.0
      ],
      "type": "VEC2"
    },
    {
      "bufferView": 0,
      "byteOffset": 36408,
      "componentType": 5125,
      "count": 876,
      "type": "SCALAR"
    }
  ],
  "asset": {
    "extras": {
      "author": "Btigade (https://sketchfab.com/btigade)",
      "license": "CC-BY-4.0 (http://creativecommons.org/licenses/by/4.0/)",
      "source": "https://sketchfab.com/3d-models/farm-food-9a02541fd1d14f93ab49278344f97c18",
      "title": "Farm Food"
    },
    "generator": "Sketchfab-15.22.0",
    "version": "2.0"
  },
  "bufferViews": [
    {
      "buffer": 0,
      "byteLength": 39912,
      "name": "floatBufferViews",
      "target": 34963
    },
    {
      "buffer": 0,
      "byteLength": 33520,
      "byteOffset": 39912,
      "byteStride": 8,
      "name": "floatBufferViews",
      "target": 34962
    },
    {
      "buffer": 0,
      "byteLength": 100560,
      "byteOffset": 73432,
      "byteStride": 12,
      "name": "floatBufferViews",
      "target": 34962
    }
  ],
  "buffers": [
    {
      "byteLength": 173992,
      "uri": "scene.bin"
    }
  ],
  "materials": [
    {
      "doubleSided": true,
      "name": "Material",
      "pbrMetallicRoughness": {
        "baseColorFactor": [
          0.0833993,
          0.349327,
          0.0,
          1.0
        ],
        "metallicFactor": 0.0,
        "roughnessFactor": 0.5
      }
    },
    {
      "doubleSided": true,
      "name": "Material.001",
      "pbrMetallicRoughness": {
        "baseColorFactor": [
          0.8,
          0.197334,
          0.0,
          1.0
        ],
        "metallicFactor": 0.0,
        "roughnessFactor": 0.5
      }
    },
    {
      "doubleSided": true,
      "name": "Material.002",
      "pbrMetallicRoughness": {
        "baseColorFactor": [
          0.8,
          0.0503584,
          0.0244778,
          1.0
        ],
        "metallicFactor": 0.0,
        "roughnessFactor": 0.5
      }
    },
    {
      "doubleSided": true,
      "name": "Material.003",
      "pbrMetallicRoughness": {
        "baseColorFactor": [
          0.0338015,
          0.129886,
          0.0,
          1.0
        ],
        "metallicFactor": 0.0,
        "roughnessFactor": 0.5
      }
    },
    {
      "doubleSided": true,
      "name": "Material.004",
      "pbrMetallicRoughness": {
        "baseColorFactor": [
          0.0657467,
          0.0117243,
          0.126211,
          1.0
        ],
        "metallicFactor": 0.0,
        "roughnessFactor": 0.5
      }
    },
    {
      "doubleSided": true,
      "name": "Material.005",
      "pbrMetallicRoughness": {
        "baseColorFactor": [
          0.183263,
          0.109625,
          0.024992,
          1.0
        ],
        "metallicFactor": 0.0,
        "roughnessFactor": 0.5
      }
    },
    {
      "doubleSided": true,
      "name": "Material.006",
      "pbrMetallicRoughness": {
        "baseColorFactor": [
          0.8,
          0.0173568,
          0.0425086,
          1.0
        ],
        "metallicFactor": 0.0,
        "roughnessFactor": 0.5
      }
    },
    {
      "doubleSided": true,
      "name": "Material.008",
      "pbrMetallicRoughness": {
        "baseColorFactor": [
          0.0469226,
          0.0811419,
          0.0115344,
          1.0
        ],
        "metallicFactor": 0.0,
        "roughnessFactor": 0.5
      }
    },
    {
      "doubleSided": true,
      "name": "Material.007",
      "pbrMetallicRoughness": {
        "baseColorFactor": [
          0.579021,
          0.8,
          0.31751,
          1.0
        ],
        "metallicFactor": 0.0,
        "roughnessFactor": 0.5
      }
    }
  ],
  "meshes": [
    {
      "name": "Object_0",
      "primitives": [
        {
          "attributes": {
            "NORMAL": 1,
            "POSITION": 0,
            "TEXCOORD_0": 2
          },
          "indices": 3,
          "material": 0,
          "mode": 4
        }
      ]
    },
    {
      "name": "Object_1",
      "primitives": [
        {
          "attributes": {
            "NORMAL": 5,
            "POSITION": 4,
            "TEXCOORD_0": 6
          },
          "indices": 7,
          "material": 1,
          "mode": 4
        }
      ]
    },
    {
      "name": "Object_2",
      "primitives": [
        {
          "attributes": {
            "NORMAL": 9,
            "POSITION": 8,
            "TEXCOORD_0": 10
          },
          "indices": 11,
          "material": 2,
          "mode": 4
        }
      ]
    },
    {
      "name": "Object_3",
      "primitives": [
        {
          "attributes": {
            "NORMAL": 13,
            "POSITION": 12,
            "TEXCOORD_0": 14
          },
          "indices": 15,
          "material": 3,
          "mode": 4
        }
      ]
    },
    {
      "name": "Object_4",
      "primitives": [
        {
          "attributes": {
            "NORMAL": 17,
            "POSITION": 16,
            "TEXCOORD_0": 18
          },
          "indices": 19,
          "material": 4,
          "mode": 4
        }
      ]
    },
    {
      "name": "Object_5",
      "primitives": [
        {
          "attributes": {
            "NORMAL": 21,
            "POSITION": 20,
            "TEXCOORD_0": 22
          },
          "indices": 23,
          "material": 0,
          "mode": 4
        }
      ]
    },
    {
      "name": "Object_6",
      "primitives": [
        {
          "attributes": {
            "NORMAL": 25,
            "POSITION": 24,
            "TEXCOORD_0": 26
          },
          "indices": 27,
          "material": 2,
          "mode": 4
        }
      ]
    },
    {
      "name": "Object_7",
      "primitives": [
        {
          "attributes": {
            "NORMAL": 29,
            "POSITION": 28,
            "TEXCOORD_0": 30
          },
          "indices": 31,
          "material": 3,
          "mode": 4
        }
      ]
    },
    {
      "name": "Object_8",
      "primitives": [
        {
          "attributes": {
            "NORMAL": 33,
            "POSITION": 32,
            "TEXCOORD_0": 34
          },
          "indices": 35,
          "material": 5,
          "mode": 4
        }
      ]
    },
    {
      "name": "Object_9",
      "primitives": [
        {
          "attributes": {
            "NORMAL": 37,
            "POSITION": 36,
            "TEXCOORD_0": 38
          },
          "indices": 39,
          "material": 0,
          "mode": 4
        }
      ]
    },
    {
      "name": "Object_10",
      "primitives": [
        {
          "attributes": {
            "NORMAL": 41,
            "POSITION": 40,
            "TEXCOORD_0": 42
          },
          "indices": 43,
          "material": 6,
          "mode": 4
        }
      ]
    },
    {
      "name": "Object_11",
      "primitives": [
        {
          "attributes": {
            "NORMAL": 45,
            "POSITION": 44,
            "TEXCOORD_0": 46
          },
          "indices": 47,
          "material": 7,
          "mode": 4
        }
      ]
    },
    {
      "name": "Object_12",
      "primitives": [
        {
          "attributes": {
            "NORMAL": 49,
            "POSITION": 48,
            "TEXCOORD_0": 50
          },
          "indices": 51,
          "material": 8,
          "mode": 4
        }
      ]
    }
  ],
  "nodes": [
    {
      "children": [
        1
      ],
      "matrix": [
        1.0,
        0.0,
        0.0,
        0.0,
        0.0,
        2.220446049250313e-16,
        -1.0,
        0.0,
        0.0,
        1.0,
        2.220446049250313e-16,
        0.0,
        0.0,
        0.0,
        0.0,
        1.0
      ],
      "name": "Sketchfab_model"
    },
    {
      "children": [
        2
      ],
      "name": "root"
    },
    {
      "children": [
        3,
        6,
        9,
        12,
        15,
        17,
        20
      ],
      "matrix": [
        1.0,
        0.0,
        0.0,
        0.0,
        0.0,
        2.220446049250313e-16,
        1.0,
        0.0,
        0.0,
        -1.0,
        2.220446049250313e-16,
        0.0,
        0.0,
        0.0,
        0.0,
        1.0
      ],
      "name": "GLTF_SceneRootNode"
    },
    {
      "children": [
        4,
        5
      ],
      "matrix": [
        -0.008665756772937348,
        -2.8896744377351478e-11,
        0.010532537900817181,
        0.0,
        -0.010532537900817132,
        -1.2850838826976653e-09,
        -0.008665756772937312,
        0.0,
        1.0107290583203107e-09,
        -0.013639270327985226,
        7.941677257261856e-10,
        0.0,
        0.02609264850616455,
        0.7433253526687622,
        -0.3415079116821289,
        1.0
      ],
      "name": "Carrot.GR_4"
    },
    {
      "mesh": 0,
      "name": "Object_4"
    },
    {
      "mesh": 1,
      "name": "Object_5"
    },
    {
      "children": [
        7,
        8
      ],
      "matrix": [
        0.06449773907661438,
        0.0,
        0.0,
        0.0,
        0.0,
        0.047291163355112076,
        0.0,
        0.0,
        0.0,
        0.0,
        0.06449773907661438,
        0.0,
        0.022906899452209473,
        0.6852757930755615,
        -0.48572444915771484,
        1.0
      ],
      "name": "Tomato.GR_5"
    },
    {
      "mesh": 2,
      "name": "Object_7"
    },
    {
      "mesh": 3,
      "name": "Object_8"
    },
    {
      "children": [
        10,
        11
      ],
      "matrix": [
        0.039350081235170364,
        0.0,
        0.0,
        0.0,
        0.0,
        0.039350081235170364,
        0.0,
        0.0,
        0.0,
        0.0,
        0.039350081235170364,
        0.0,
        0.022906899452209473,
        0.7157058715820313,
        -0.11789608001708984,
        1.0
      ],
      "name": "Eggplant.GR_6"
    },
    {
      "mesh": 4,
      "name": "Object_10"
    },
    {
      "mesh": 5,
      "name": "Object_11"
    },
    {
      "children": [
        13,
        14
      ],
      "matrix": [
        0.018524464162164116,
        0.0,
        -0.005663505167885648,
        0.0,
        0.0,
        0.020961476489901543,
        0.0,
        0.0,
        0.005663505167885648,
        0.0,
        0.018524464162164116,
        0.0,
        0.022283196449279785,
        0.7250885963439941,
        0.0012636184692382813,
        1.0
      ],
      "name": "Bell_pepper.GR_7"
    },
    {
      "mesh": 6,
      "name": "Object_13"
    },
    {
      "mesh": 7,
      "name": "Object_14"
    },
    {
      "children": [
        16
      ],
      "matrix": [
        0.024067070335149765,
        0.0,
        0.0,
        0.0,
        0.0,
        0.024067070335149765,
        0.0,
        0.0,
        0.0,
        0.0,
        0.024067070335149765,
        0.0,
        0.022906899452209473,
        0.7157058715820313,
        0.15535354614257813,
        1.0
      ],
      "name": "Potato.GR_8"
    },
    {
      "mesh": 8,
      "name": "Object_16"
    },
    {
      "children": [
        18,
        19
      ],
      "matrix": [
        0.06449773907661438,
        0.0,
        0.0,
        0.0,
        0.0,
        0.06449773907661438,
        0.0,
        0.0,
        0.0,
        0.0,
        0.06449773907661438,
        0.0,
        0.022906899452209473,
        0.740416944026947,
        0.2618064880371094,
        1.0
      ],
      "name": "Radish.GR_9"
    },
    {
      "mesh": 9,
      "name": "Object_18"
    },
    {
      "mesh": 10,
      "name": "Object_19"
    },
    {
      "children": [
        21,
        22
      ],
      "matrix": [
        0.03906483423235562,
        0.0008132693077237977,
        0.006448790026077452,
        0.0,
        -0.0010412407095212652,
        0.022810726355482352,
        0.003430819113688217,
        0.0,
        -0.00624974309863616,
        -0.006095037064030149,
        0.03862772453581714,
        0.0,
        0.061453938484191895,
        0.7797677516937256,
        0.48862361907958984,
        1.0
      ],
      "name": "Broccoli.GR_10"
    },
    {
      "mesh": 11,
      "name": "Object_21"
    },
    {
      "mesh": 12,
      "name": "Object_22"
    }
  ],
  "scene": 0,
  "scenes": [
    {
      "name": "Sketchfab_Scene",
      "nodes": [
        0
      ]
    }
  ]
}
