{
  "accessors": [
    {
      "bufferView": 2,
      "componentType": 5126,
      "count": 64,
      "max": [
        1.192244529724121,
        1.7400367259979248,
        3.0612919330596924
      ],
      "min": [
        -1.192244529724121,
        -1.7400367259979248,
        0.023171544075012207
      ],
      "type": "VEC3"
    },
    {
      "bufferView": 2,
      "byteOffset": 768,
      "componentType": 5126,
      "count": 64,
      "max": [
        0.9970837235450745,
        1.0,
        1.0
      ],
      "min": [
        -0.9970837235450745,
        -1.0,
        -1.0
      ],
      "type": "VEC3"
    },
    {
      "bufferView": 1,
      "componentType": 5126,
      "count": 64,
      "max": [
        0.9774160385131836,
        0.9608674049377441
      ],
      "min": [
        0.012740750797092915,
        0.020204361528158188
      ],
      "type": "VEC2"
    },
    {
      "bufferView": 0,
      "componentType": 5125,
      "count": 120,
      "type": "SCALAR"
    },
    {
      "bufferView": 2,
      "byteOffset": 1536,
      "componentType": 5126,
      "count": 78,
      "max": [
        0.8637164831161499,
        2.8551456928253174,
        0.6361416578292847
      ],
      "min": [
        -0.8637164831161499,
        -2.8551456928253174,
        0.007373631000518799
      ],
      "type": "VEC3"
    },
    {
      "bufferView": 2,
      "byteOffset": 2472,
      "componentType": 5126,
      "count": 78,
      "max": [
        0.9055394530296326,
        0.9270747303962708,
        0.9998845458030701
      ],
      "min": [
        -0.9055394530296326,
        -0.9270747303962708,
        -1.0
      ],
      "type": "VEC3"
    },
    {
      "bufferView": 1,
      "byteOffset": 512,
      "componentType": 5126,
      "count": 78,
      "max": [
        0.925403356552124,
        0.9907611012458801
      ],
      "min": [
        0.09315937012434006,
        0.014160459861159325
      ],
      "type": "VEC2"
    },
    {
      "bufferView": 0,
      "byteOffset": 480,
      "componentType": 5125,
      "count": 312,
      "type": "SCALAR"
    },
    {
      "bufferView": 2,
      "byteOffset": 3408,
      "componentType": 5126,
      "count": 18,
      "max": [
        0.9901795387268066,
        1.029750108718872,
        1.052405834197998
      ],
      "min": [
        -0.9525869488716125,
        -1.4925066232681274,
        0.014284849166870117
      ],
      "type": "VEC3"
    },
    {
      "bufferView": 2,
      "byteOffset": 3624,
      "componentType": 5126,
      "count": 18,
      "max": [
        0.9304126501083374,
        0.9999998807907104,
        1.0
      ],
      "min": [
        -0.935875415802002,
        -0.3665139675140381,
        -1.0
      ],
      "type": "VEC3"
    },
    {
      "bufferView": 1,
      "byteOffset": 1136,
      "componentType": 5126,
      "count": 18,
      "max": [
        0.9790588617324829,
        0.9754331707954407
      ],
      "min": [
        0.02723918855190277,
        0.010699272155761719
      ],
      "type": "VEC2"
    },
    {
      "bufferView": 0,
      "byteOffset": 1728,
      "componentType": 5125,
      "count": 24,
      "type": "SCALAR"
    },
    {
      "bufferView": 2,
      "byteOffset": 3840,
      "componentType": 5126,
      "count": 146,
      "max": [
        0.682407557964325,
        2.545870780944824,
        1.3797597885131836
      ],
      "min": [
        -0.6821399927139282,
        -2.545872688293457,
        0.01521211862564087
      ],
      "type": "VEC3"
    },
    {
      "bufferView": 2,
      "byteOffset": 5592,
      "componentType": 5126,
      "count": 146,
      "max": [
        0.9516807794570923,
        1.0,
        0.9516807794570923
      ],
      "min": [
        -0.9516807794570923,
        -1.0,
        -0.9516807794570923
      ],
      "type": "VEC3"
    },
    {
      "bufferView": 1,
      "byteOffset": 1280,
      "componentType": 5126,
      "count": 146,
      "max": [
        0.9272652864456177,
        0.9689375162124634
      ],
      "min": [
        0.040880292654037476,
        0.047058142721652985
      ],
      "type": "VEC2"
    },
    {
      "bufferView": 0,
      "byteOffset": 1824,
      "componentType": 5125,
      "count": 492,
      "type": "SCALAR"
    },
    {
      "bufferView": 2,
      "byteOffset": 7344,
      "componentType": 5126,
      "count": 106,
      "max": [
        0.682483434677124,
        1.7818090915679932,
        1.3798935413360596
      ],
      "min": [
        -0.6820694804191589,
        -2.0177206993103027,
        0.015343725681304932
      ],
      "type": "VEC3"
    },
    {
      "bufferView": 2,
      "byteOffset": 8616,
      "componentType": 5126,
      "count": 106,
      "max": [
        0.9516821503639221,
        1.0,
        0.9516821503639221
      ],
      "min": [
        -0.9516821503639221,
        -0.8982874751091003,
        -0.9516821503639221
      ],
      "type": "VEC3"
    },
    {
      "bufferView": 1,
      "byteOffset": 2448,
      "componentType": 5126,
      "count": 106,
      "max": [
        0.983349621295929,
        0.9735485315322876
      ],
      "min": [
        0.018642161041498184,
        0.03234441578388214
      ],
      "type": "VEC2"
    },
    {
      "bufferView": 0,
      "byteOffset": 3792,
      "componentType": 5125,
      "count": 312,
      "type": "SCALAR"
    },
    {
      "bufferView": 2,
      "byteOffset": 9888,
      "componentType": 5126,
      "count": 136,
      "max": [
        0.5811746120452881,
        0.5811745524406433,
        1.1694300174713135
      ],
      "min": [
        -0.5811746120452881,
        -0.5811746120452881,
        0.0019922852516174316
      ],
      "type": "VEC3"
    },
    {
      "bufferView": 2,
      "byteOffset": 11520,
      "componentType": 5126,
      "count": 136,
      "max": [
        0.9956413507461548,
        0.9956414103507996,
        1.0
      ],
      "min": [
        -0.99564129114151,
        -0.9956413507461548,
        -1.0
      ],
      "type": "VEC3"
    },
    {
      "bufferView": 1,
      "byteOffset": 3296,
      "componentType": 5126,
      "count": 136,
      "max": [
        0.9812392592430115,
        0.9848138689994812
      ],
      "min": [
        0.06872639060020447,
        0.012942612171173096
      ],
      "type": "VEC2"
    },
    {
      "bufferView": 0,
      "byteOffset": 5040,
      "componentType": 5125,
      "count": 324,
      "type": "SCALAR"
    },
    {
      "bufferView": 2,
      "byteOffset": 13152,
      "componentType": 5126,
      "count": 128,
      "max": [
        0.7546596527099609,
        0.7546593546867371,
        0.3235509991645813
      ],
      "min": [
        -0.7546594142913818,
        -0.7546597123146057,
        0.0019922256469726563
      ],
      "type": "VEC3"
    },
    {
      "bufferView": 2,
      "byteOffset": 14688,
      "componentType": 5126,
      "count": 128,
      "max": [
        0.999213695526123,
        0.999213695526123,
        1.0
      ],
      "min": [
        -0.999213695526123,
        -0.999213695526123,
        -1.0
      ],
      "type": "VEC3"
    },
    {
      "bufferView": 1,
      "byteOffset": 4384,
      "componentType": 5126,
      "count": 128,
      "max": [
        0.9830870628356934,
        0.9878342747688293
      ],
      "min": [
        0.06151282414793968,
        0.015651196241378784
      ],
      "type": "VEC2"
    },
    {
      "bufferView": 0,
      "byteOffset": 6336,
      "componentType": 5125,
      "count": 324,
      "type": "SCALAR"
    },
    {
      "bufferView": 2,
      "byteOffset": 16224,
      "componentType": 5126,
      "count": 84,
      "max": [
        0.7080291509628296,
        0.5686070919036865,
        3.1150941848754883
      ],
      "min": [
        -0.7080291509628296,
        -0.5686070919036865,
        0.014837443828582764
      ],
      "type": "VEC3"
    },
    {
      "bufferView": 2,
      "byteOffset": 17232,
      "componentType": 5126,
      "count": 84,
      "max": [
        1.0,
        1.0,
        1.0
      ],
      "min": [
        -1.0,
        -1.0,
        -1.0
      ],
      "type": "VEC3"
    },
    {
      "bufferView": 1,
      "byteOffset": 5408,
      "componentType": 5126,
      "count": 84,
      "max": [
        0.9933672547340393,
        0.9797393679618835
      ],
      "min": [
        0.006632685661315918,
        0.006632739212363958
      ],
      "type": "VEC2"
    },
    {
      "bufferView": 0,
      "byteOffset": 7632,
      "componentType": 5125,
      "count": 132,
      "type": "SCALAR"
    },
    {
      "bufferView": 2,
      "byteOffset": 18240,
      "componentType": 5126,
      "count": 338,
      "max": [
        0.9304652214050293,
        1.8627017736434937,
        1.651148796081543
      ],
      "min": [
        -0.9431843161582947,
        -0.8143433332443237,
        0.028520584106445313
      ],
      "type": "VEC3"
    },
    {
      "bufferView": 2,
      "byteOffset": 22296,
      "componentType": 5126,
      "count": 338,
      "max": [
        0.8876308798789978,
        0.9873829483985901,
        1.0
      ],
      "min": [
        -0.8828256726264954,
        -1.0,
        -1.0
      ],
      "type": "VEC3"
    },
    {
      "bufferView": 1,
      "byteOffset": 6080,
      "componentType": 5126,
      "count": 338,
      "max": [
        0.9877663254737854,
        0.9877543449401855
      ],
      "min": [
        0.025962496176362038,
        0.02476935088634491
      ],
      "type": "VEC2"
    },
    {
      "bufferView": 0,
      "byteOffset": 8160,
      "componentType": 5125,
      "count": 498,
      "type": "SCALAR"
    },
    {
      "bufferView": 2,
      "byteOffset": 26352,
      "componentType": 5126,
      "count": 78,
      "max": [
        0.764061689376831,
        0.9467726349830627,
        0.22989843785762787
      ],
      "min": [
        -0.7086951732635498,
        -0.6810113787651062,
        0.011841773986816406
      ],
      "type": "VEC3"
    },
    {
      "bufferView": 2,
      "byteOffset": 27288,
      "componentType": 5126,
      "count": 78,
      "max": [
        0.9852117896080017,
        0.9615239500999451,
        1.0
      ],
      "min": [
        -0.9926932454109192,
        -1.0,
        -1.0
      ],
      "type": "VEC3"
    },
    {
      "bufferView": 1,
      "byteOffset": 8784,
      "componentType": 5126,
      "count": 78,
      "max": [
        0.9805338978767395,
        0.9895879626274109
      ],
      "min": [
        0.016951745375990868,
        0.004550176672637463
      ],
      "type": "VEC2"
    },
    {
      "bufferView": 0,
      "byteOffset": 10152,
      "componentType": 5125,
      "count": 180,
      "type": "SCALAR"
    }
  ],
  "asset": {
    "extras": {
      "author": "Kit Northman (https://sketchfab.com/KitNorthman)",
      "license": "CC-BY-4.0 (http://creativecommons.org/licenses/by/4.0/)",
      "source": "https://sketchfab.com/3d-models/food-pack-low-poly-dd75bc1c26d44e2da3a95807faa07902",
      "title": "Food Pack Low Poly"
    },
    "generator": "Sketchfab-14.84.0",
    "version": "2.0"
  },
  "bufferViews": [
    {
      "buffer": 0,
      "byteLength": 10872,
      "name": "floatBufferViews",
      "target": 34963
    },
    {
      "buffer": 0,
      "byteLength": 9408,
      "byteOffset": 10872,
      "byteStride": 8,
      "name": "floatBufferViews",
      "target": 34962
    },
    {
      "buffer": 0,
      "byteLength": 28224,
      "byteOffset": 20280,
      "byteStride": 12,
      "name": "floatBufferViews",
      "target": 34962
    }
  ],
  "buffers": [
    {
      "byteLength": 48504,
      "uri": "scene.bin"
    }
  ],
  "extensionsUsed": [
    "KHR_materials_unlit"
  ],
  "images": [
    {
      "uri": "textures/Bread_1_baseColor.jpeg"
    },
    {
      "uri": "textures/Bread_2_baseColor.jpeg"
    },
    {
      "uri": "textures/Cheese_baseColor.jpeg"
    },
    {
      "uri": "textures/Sausage_1_baseColor.jpeg"
    },
    {
      "uri": "textures/Sausage_2_baseColor.jpeg"
    },
    {
      "uri": "textures/Conserva_1_baseColor.jpeg"
    },
    {
      "uri": "textures/Conserva_2_baseColor.jpeg"
    },
    {
      "uri": "textures/Milk_baseColor.jpeg"
    },
    {
      "uri": "textures/Meat_1_baseColor.jpeg"
    },
    {
      "uri": "textures/Meat_2_baseColor.jpeg"
    }
  ],
  "materials": [
    {
      "doubleSided": true,
      "extensions": {
        "KHR_materials_unlit": {}
      },
      "name": "Bread_1",
      "pbrMetallicRoughness": {
        "baseColorTexture": {
          "index": 0
        },
        "metallicFactor": 0.0
      }
    },
    {
      "doubleSided": true,
      "extensions": {
        "KHR_materials_unlit": {}
      },
      "name": "Bread_2",
      "pbrMetallicRoughness": {
        "baseColorTexture": {
          "index": 1
        },
        "metallicFactor": 0.0
      }
    },
    {
      "doubleSided": true,
      "extensions": {
        "KHR_materials_unlit": {}
      },
      "name": "Cheese",
      "pbrMetallicRoughness": {
        "baseColorTexture": {
          "index": 2
        },
        "metallicFactor": 0.0
      }
    },
    {
      "doubleSided": true,
      "extensions": {
        "KHR_materials_unlit": {}
      },
      "name": "Sausage_1",
      "pbrMetallicRoughness": {
        "baseColorTexture": {
          "index": 3
        },
        "metallicFactor": 0.0
      }
    },
    {
      "doubleSided": true,
      "extensions": {
        "KHR_materials_unlit": {}
      },
      "name": "Sausage_2",
      "pbrMetallicRoughness": {
        "baseColorTexture": {
          "index": 4
        },
        "metallicFactor": 0.0
      }
    },
    {
      "doubleSided": true,
      "extensions": {
        "KHR_materials_unlit": {}
      },
      "name": "Conserva_1",
      "pbrMetallicRoughness": {
        "baseColorTexture": {
          "index": 5
        },
        "metallicFactor": 0.0
      }
    },
    {
      "doubleSided": true,
      "extensions": {
        "KHR_materials_unlit": {}
      },
      "name": "Conserva_2",
      "pbrMetallicRoughness": {
        "baseColorTexture": {
          "index": 6
        },
        "metallicFactor": 0.0
      }
    },
    {
      "doubleSided": true,
      "extensions": {
        "KHR_materials_unlit": {}
      },
      "name": "Milk",
      "pbrMetallicRoughness": {
        "baseColorTexture": {
          "index": 7
        },
        "metallicFactor": 0.0
      }
    },
    {
      "doubleSided": true,
      "extensions": {
        "KHR_materials_unlit": {}
      },
      "name": "Meat_1",
      "pbrMetallicRoughness": {
        "baseColorTexture": {
          "index": 8
        },
        "metallicFactor": 0.0
      }
    },
    {
      "doubleSided": true,
      "extensions": {
        "KHR_materials_unlit": {}
      },
      "name": "Meat_2",
      "pbrMetallicRoughness": {
        "baseColorTexture": {
          "index": 9
        },
        "metallicFactor": 0.0
      }
    }
  ],
  "meshes": [
    {
      "name": "Bread 1_Bread 1_0",
      "primitives": [
        {
          "attributes": {
            "NORMAL": 1,
            "POSITION": 0,
            "TEXCOORD_0": 2
          },
          "indices": 3,
          "material": 0,
          "mode": 4
        }
      ]
    },
    {
      "name": "Bread 2_Bread 2_0",
      "primitives": [
        {
          "attributes": {
            "NORMAL": 5,
            "POSITION": 4,
            "TEXCOORD_0": 6
          },
          "indices": 7,
          "material": 1,
          "mode": 4
        }
      ]
    },
    {
      "name": "Cheese_Cheese_0",
      "primitives": [
        {
          "attributes": {
            "NORMAL": 9,
            "POSITION": 8,
            "TEXCOORD_0": 10
          },
          "indices": 11,
          "material": 2,
          "mode": 4
        }
      ]
    },
    {
      "name": "Sausage 1_Sausage 1_0",
      "primitives": [
        {
          "attributes": {
            "NORMAL": 13,
            "POSITION": 12,
            "TEXCOORD_0": 14
          },
          "indices": 15,
          "material": 3,
          "mode": 4
        }
      ]
    },
    {
      "name": "Sausage 2_Sausage 2_0",
      "primitives": [
        {
          "attributes": {
            "NORMAL": 17,
            "POSITION": 16,
            "TEXCOORD_0": 18
          },
          "indices": 19,
          "material": 4,
          "mode": 4
        }
      ]
    },
    {
      "name": "Conserva 1_Conserva 1_0",
      "primitives": [
        {
          "attributes": {
            "NORMAL": 21,
            "POSITION": 20,
            "TEXCOORD_0": 22
          },
          "indices": 23,
          "material": 5,
          "mode": 4
        }
      ]
    },
    {
      "name": "Conserva 2_Conserva 2_0",
      "primitives": [
        {
          "attributes": {
            "NORMAL": 25,
            "POSITION": 24,
            "TEXCOORD_0": 26
          },
          "indices": 27,
          "material": 6,
          "mode": 4
        }
      ]
    },
    {
      "name": "Milk_Milk_0",
      "primitives": [
        {
          "attributes": {
            "NORMAL": 29,
            "POSITION": 28,
            "TEXCOORD_0": 30
          },
          "indices": 31,
          "material": 7,
          "mode": 4
        }
      ]
    },
    {
      "name": "Meat 1_Meat 1_0",
      "primitives": [
        {
          "attributes": {
            "NORMAL": 33,
            "POSITION": 32,
            "TEXCOORD_0": 34
          },
          "indices": 35,
          "material": 8,
          "mode": 4
        }
      ]
    },
    {
      "name": "Meat 2_Meat 2_0",
      "primitives": [
        {
          "attributes": {
            "NORMAL": 37,
            "POSITION": 36,
            "TEXCOORD_0": 38
          },
          "indices": 39,
          "material": 9,
          "mode": 4
        }
      ]
    }
  ],
  "nodes": [
    {
      "children": [
        1
      ],
      "matrix": [
        1.0,
        0.0,
        0.0,
        0.0,
        0.0,
        2.220446049250313e-16,
        -1.0,
        0.0,
        0.0,
        1.0,
        2.220446049250313e-16,
        0.0,
        0.0,
        0.0,
        0.0,
        1.0
      ],
      "name": "Sketchfab_model"
    },
    {
      "children": [
        2
      ],
      "matrix": [
        0.009999999776482582,
        0.0,
        0.0,
        0.0,
        0.0,
        0.0,
        0.009999999776482582,
        0.0,
        0.0,
        -0.009999999776482582,
        0.0,
        0.0,
        0.0,
        0.0,
        0.0,
        1.0
      ],
      "name": "Food.fbx"
    },
    {
      "children": [
        3,
        5,
        7,
        9,
        11,
        13,
        15,
        17,
        19,
        21
      ],
      "name": "RootNode"
    },
    {
      "children": [
        4
      ],
      "matrix": [
        100.0,
        0.0,
        0.0,
        0.0,
        -0.0,
        -1.629206793918314e-05,
        -99.99999999999868,
        0.0,
        0.0,
        99.99999999999868,
        -1.629206793918314e-05,
        0.0,
        -1915.78955078125,
        0.0,
        0.0,
        1.0
      ],
      "name": "Bread 1"
    },
    {
      "mesh": 0,
      "name": "Bread 1_Bread 1_0"
    },
    {
      "children": [
        6
      ],
      "matrix": [
        100.0,
        0.0,
        0.0,
        0.0,
        -0.0,
        -1.629206793918314e-05,
        -99.99999999999868,
        0.0,
        0.0,
        99.99999999999868,
        -1.629206793918314e-05,
        0.0,
        -1526.41064453125,
        0.0,
        0.0,
        1.0
      ],
      "name": "Bread 2"
    },
    {
      "mesh": 1,
      "name": "Bread 2_Bread 2_0"
    },
    {
      "children": [
        8
      ],
      "matrix": [
        100.0,
        0.0,
        0.0,
        0.0,
        -0.0,
        -1.629206793918314e-05,
        -99.99999999999868,
        0.0,
        0.0,
        99.99999999999868,
        -1.629206793918314e-05,
        0.0,
        -1171.5322265625,
        0.0,
        0.0,
        1.0
      ],
      "name": "Cheese"
    },
    {
      "mesh": 2,
      "name": "Cheese_Cheese_0"
    },
    {
      "children": [
        10
      ],
      "matrix": [
        133.48377990722656,
        0.0,
        0.0,
        0.0,
        -0.0,
        -2.1747268110275047e-05,
        -133.4837799072248,
        0.0,
        0.0,
        133.4837799072248,
        -2.1747268110275047e-05,
        0.0,
        -840.9483642578125,
        0.0,
        0.0,
        1.0
      ],
      "name": "Sausage 1"
    },
    {
      "mesh": 3,
      "name": "Sausage 1_Sausage 1_0"
    },
    {
      "children": [
        12
      ],
      "matrix": [
        133.48377990722656,
        0.0,
        0.0,
        0.0,
        -0.0,
        -2.1747268110275047e-05,
        -133.4837799072248,
        0.0,
        0.0,
        133.4837799072248,
        -2.1747268110275047e-05,
        0.0,
        -492.13677978515625,
        0.0,
        0.0,
        1.0
      ],
      "name": "Sausage 2"
    },
    {
      "mesh": 4,
      "name": "Sausage 2_Sausage 2_0"
    },
    {
      "children": [
        14
      ],
      "matrix": [
        130.0944366455078,
        0.0,
        0.0,
        0.0,
        -0.0,
        -2.1195074003383702e-05,
        -130.0944366455061,
        0.0,
        0.0,
        130.0944366455061,
        -2.1195074003383702e-05,
        0.0,
        -166.6436004638672,
        0.0,
        0.0,
        1.0
      ],
      "name": "Conserva 1"
    },
    {
      "mesh": 5,
      "name": "Conserva 1_Conserva 1_0"
    },
    {
      "children": [
        16
      ],
      "matrix": [
        117.78311920166016,
        0.0,
        0.0,
        0.0,
        0.0,
        -1.918930580122354e-05,
        -117.7831192016586,
        0.0,
        0.0,
        117.7831192016586,
        -1.918930580122354e-05,
        0.0,
        165.32749938964844,
        0.0,
        0.0,
        1.0
      ],
      "name": "Conserva 2"
    },
    {
      "mesh": 6,
      "name": "Conserva 2_Conserva 2_0"
    },
    {
      "children": [
        18
      ],
      "matrix": [
        144.0253143310547,
        0.0,
        0.0,
        0.0,
        0.0,
        -2.3464702060437503e-05,
        -144.02531433105278,
        0.0,
        0.0,
        144.02531433105278,
        -2.3464702060437503e-05,
        0.0,
        481.2487487792969,
        0.0,
        0.0,
        1.0
      ],
      "name": "Milk"
    },
    {
      "mesh": 7,
      "name": "Milk_Milk_0"
    },
    {
      "children": [
        20
      ],
      "matrix": [
        177.8144989013672,
        0.0,
        0.0,
        0.0,
        0.0,
        -2.8969658966728803e-05,
        -177.81449890136483,
        0.0,
        0.0,
        177.81449890136483,
        -2.8969658966728803e-05,
        0.0,
        932.5078735351563,
        0.0,
        0.0,
        1.0
      ],
      "name": "Meat 1"
    },
    {
      "mesh": 8,
      "name": "Meat 1_Meat 1_0"
    },
    {
      "children": [
        22
      ],
      "matrix": [
        198.44140625,
        0.0,
        0.0,
        0.0,
        0.0,
        -3.233020872572042e-05,
        -198.44140624999739,
        0.0,
        0.0,
        198.44140624999739,
        -3.233020872572042e-05,
        0.0,
        1420.5023193359375,
        0.0,
        0.0,
        1.0
      ],
      "name": "Meat 2"
    },
    {
      "mesh": 9,
      "name": "Meat 2_Meat 2_0"
    }
  ],
  "samplers": [
    {
      "magFilter": 9729,
      "minFilter": 9987,
      "wrapS": 10497,
      "wrapT": 10497
    }
  ],
  "scene": 0,
  "scenes": [
    {
      "name": "Sketchfab_Scene",
      "nodes": [
        0
      ]
    }
  ],
  "textures": [
    {
      "sampler": 0,
      "source": 0
    },
    {
      "sampler": 0,
      "source": 1
    },
    {
      "sampler": 0,
      "source": 2
    },
    {
      "sampler": 0,
      "source": 3
    },
    {
      "sampler": 0,
      "source": 4
    },
    {
      "sampler": 0,
      "source": 5
    },
    {
      "sampler": 0,
      "source": 6
    },
    {
      "sampler": 0,
      "source": 7
    },
    {
      "sampler": 0,
      "source": 8
    },
    {
      "sampler": 0,
      "source": 9
    }
  ]
}
